<?xml version="1.0" encoding="utf-8"?>
<!-- Generator: Adobe Illustrator 20.1.0, SVG Export Plug-In . SVG Version: 6.00 Build 0)  -->
<svg version="1.1" id="Capa_1" xmlns="http://www.w3.org/2000/svg" xmlns:xlink="http://www.w3.org/1999/xlink" x="0px" y="0px"
	 viewBox="0 0 480 480" style="enable-background:new 0 0 480 480;" xml:space="preserve">
<style type="text/css">
	.st0{fill:#B8BAC0;}
	.st1{fill:#FFFFFF;}
	.st2{fill:#D7DBE0;}
	.st3{fill:#5C546A;}
</style>
<g>
	<g>
		<circle class="st0" cx="240" cy="240" r="240"/>
	</g>
	<g>
		<g>
			<path class="st1" d="M240,360.1c-27.9,0-53.3-12-72-31.4c0,11.6-0.4,28.4-3.5,40.6c2,1.2,3.6,3.3,3.9,5.8c4,32.5,34.8,57,71.6,57
				c36.8,0,67.6-24.5,71.6-57c0.3-2.5,1.8-4.5,3.9-5.8c-3.1-12.2-3.5-29-3.5-40.6C293.3,348.1,267.9,360.1,240,360.1z"/>
		</g>
	</g>
	<g>
		<g>
			<path class="st2" d="M310.4,330.2c-18.5,18.5-43.2,29.9-70.4,29.9c-27.9,0-53.3-12-72-31.4c0,11.6-0.4,28.4-3.5,40.6
				c2,1.2,3.6,3.3,3.9,5.8c1.8,14.4,8.8,27.1,19.2,37C235.8,405.3,290.4,357.7,310.4,330.2z"/>
		</g>
	</g>
	<g>
		<g>
			<path class="st1" d="M312,160.1H176c-22.1,0-40,17.9-40,40v48c0,61.8,46.7,112,104,112s104-50.2,104-112v-56
				C344,174.4,329.6,160.1,312,160.1z"/>
		</g>
	</g>
	<g>
		<g>
			<path class="st3" d="M296,72.1H192c-15,0-27.7,10.4-31.1,24.4c-27.5,3.5-48.9,27.1-48.9,55.6v40c0,20.6,8.8,39.9,24,53.5v-45.5
				c0-22.1,17.9-40,40-40h136c17.6,0,32,14.4,32,32v53.5c15.3-13.7,24-32.9,24-53.5v-48C368,104.4,335.7,72.1,296,72.1z"/>
		</g>
	</g>
	<g>
		<path class="st3" d="M61.6,400.5C105.6,449.3,169.2,480,240,480s134.4-30.7,178.4-79.5c-7.7-10.4-18.5-18.8-32.4-22.7
			c-0.3-0.1-0.6-0.2-1-0.2l-63.9-9.6c-0.4-0.1-1.2-0.1-1.6-0.1c-4,0-7.4,3-7.9,7c-4,32.5-34.8,57-71.6,57c-36.8,0-67.6-24.5-71.6-57
			c-0.5-4.1-4.2-7.2-8.1-7c-0.5,0-0.9,0-1.4,0.1L95,377.7c-0.3,0-0.6,0.1-1,0.2C80.1,381.8,69.3,390.2,61.6,400.5z"/>
	</g>
</g>
</svg>
